<svg width="16" height="16" viewBox="0 0 16 16" fill="none" xmlns="http://www.w3.org/2000/svg">
<g id="dots-horizontal">
<g id="Icon">
<path d="M8.0013 8.66671C8.36949 8.66671 8.66797 8.36823 8.66797 8.00004C8.66797 7.63185 8.36949 7.33337 8.0013 7.33337C7.63311 7.33337 7.33464 7.63185 7.33464 8.00004C7.33464 8.36823 7.63311 8.66671 8.0013 8.66671Z" stroke="#374151" stroke-linecap="round" stroke-linejoin="round"/>
<path d="M12.668 8.66671C13.0362 8.66671 13.3346 8.36823 13.3346 8.00004C13.3346 7.63185 13.0362 7.33337 12.668 7.33337C12.2998 7.33337 12.0013 7.63185 12.0013 8.00004C12.0013 8.36823 12.2998 8.66671 12.668 8.66671Z" stroke="#374151" stroke-linecap="round" stroke-linejoin="round"/>
<path d="M3.33464 8.66671C3.70283 8.66671 4.0013 8.36823 4.0013 8.00004C4.0013 7.63185 3.70283 7.33337 3.33464 7.33337C2.96645 7.33337 2.66797 7.63185 2.66797 8.00004C2.66797 8.36823 2.96645 8.66671 3.33464 8.66671Z" stroke="#374151" stroke-linecap="round" stroke-linejoin="round"/>
</g>
</g>
</svg>
