<svg width="24" height="24" viewBox="0 0 24 24" fill="none" xmlns="http://www.w3.org/2000/svg">
<g id="fi-rr-time-forward" clip-path="url(#clip0_4886_435460)">
<path id="Vector" d="M22.3573 10.9361C22.1044 10.9361 21.8618 11.0365 21.683 11.2154C21.5041 11.3942 21.4036 11.6368 21.4036 11.8898C21.4114 14.1074 20.6487 16.2589 19.2459 17.9764C17.8431 19.694 15.8873 20.8711 13.7129 21.3064C11.5384 21.7418 9.2802 21.4084 7.32429 20.3633C5.36837 19.3181 3.83617 17.6261 2.98956 15.5765C2.14295 13.5268 2.03449 11.2467 2.68273 9.12593C3.33098 7.00515 4.69567 5.17535 6.54355 3.94929C8.39143 2.72322 10.6078 2.177 12.8138 2.404C15.0198 2.631 17.0784 3.61712 18.6379 5.1938C18.6065 5.20236 18.5747 5.20905 18.5425 5.21383H15.6814C15.4285 5.21383 15.1859 5.31431 15.007 5.49317C14.8282 5.67202 14.7277 5.9146 14.7277 6.16753C14.7277 6.42047 14.8282 6.66305 15.007 6.84191C15.1859 7.02076 15.4285 7.12124 15.6814 7.12124H18.5425C19.3013 7.12124 20.0291 6.8198 20.5656 6.28324C21.1022 5.74668 21.4036 5.01894 21.4036 4.26013V1.39902C21.4036 1.14608 21.3032 0.9035 21.1243 0.724646C20.9455 0.545792 20.7029 0.445313 20.4499 0.445312C20.197 0.445313 19.9544 0.545792 19.7756 0.724646C19.5967 0.9035 19.4962 1.14608 19.4962 1.39902V3.36841C17.5436 1.62269 15.0509 0.599971 12.4349 0.47116C9.81879 0.342349 7.23775 1.11525 5.12303 2.6607C3.00832 4.20616 1.48805 6.43055 0.816248 8.96218C0.14445 11.4938 0.361826 14.1793 1.43205 16.5699C2.50228 18.9605 4.36052 20.9115 6.69627 22.0967C9.03201 23.2819 11.7038 23.6296 14.2651 23.0817C16.8264 22.5338 19.1221 21.1235 20.7685 19.0865C22.415 17.0494 23.3125 14.509 23.311 11.8898C23.311 11.6368 23.2106 11.3942 23.0317 11.2154C22.8529 11.0365 22.6103 10.9361 22.3573 10.9361Z" fill="#EDF5FC"/>
</g>
<defs>
<clipPath id="clip0_4886_435460">
<rect width="22.8889" height="22.8889" fill="white" transform="translate(0.421875 0.445312)"/>
</clipPath>
</defs>
</svg>
