<svg width="24" height="24" viewBox="0 0 24 24" fill="none" xmlns="http://www.w3.org/2000/svg">
<g id="fi-rr-pause" clip-path="url(#clip0_4886_435458)">
<path id="Vector" d="M6.75789 0.445312C5.8726 0.445313 5.02358 0.79699 4.39759 1.42298C3.7716 2.04897 3.41992 2.89799 3.41992 3.78328V19.9962C3.41992 20.8815 3.7716 21.7305 4.39759 22.3565C5.02358 22.9825 5.8726 23.3342 6.75789 23.3342C7.64317 23.3342 8.49219 22.9825 9.11818 22.3565C9.74417 21.7305 10.0958 20.8815 10.0958 19.9962V3.78328C10.0958 2.89799 9.74417 2.04897 9.11818 1.42298C8.49219 0.79699 7.64317 0.445313 6.75789 0.445312ZM8.18844 19.9962C8.18844 20.3756 8.03772 20.7395 7.76944 21.0078C7.50116 21.2761 7.13729 21.4268 6.75789 21.4268C6.37848 21.4268 6.01461 21.2761 5.74633 21.0078C5.47805 20.7395 5.32733 20.3756 5.32733 19.9962V3.78328C5.32733 3.40387 5.47805 3.04 5.74633 2.77172C6.01461 2.50344 6.37848 2.35272 6.75789 2.35272C7.13729 2.35272 7.50116 2.50344 7.76944 2.77172C8.03772 3.04 8.18844 3.40387 8.18844 3.78328V19.9962Z" fill="#EDF5FC"/>
<path id="Vector_2" d="M17.2481 0.445312C16.3628 0.445313 15.5138 0.79699 14.8878 1.42298C14.2618 2.04897 13.9102 2.89799 13.9102 3.78328V19.9962C13.9102 20.8815 14.2618 21.7305 14.8878 22.3565C15.5138 22.9825 16.3628 23.3342 17.2481 23.3342C18.1334 23.3342 18.9824 22.9825 19.6084 22.3565C20.2344 21.7305 20.5861 20.8815 20.5861 19.9962V3.78328C20.5861 2.89799 20.2344 2.04897 19.6084 1.42298C18.9824 0.79699 18.1334 0.445313 17.2481 0.445312ZM18.6787 19.9962C18.6787 20.3756 18.528 20.7395 18.2597 21.0078C17.9914 21.2761 17.6275 21.4268 17.2481 21.4268C16.8687 21.4268 16.5048 21.2761 16.2366 21.0078C15.9683 20.7395 15.8176 20.3756 15.8176 19.9962V3.78328C15.8176 3.40387 15.9683 3.04 16.2366 2.77172C16.5048 2.50344 16.8687 2.35272 17.2481 2.35272C17.6275 2.35272 17.9914 2.50344 18.2597 2.77172C18.528 3.04 18.6787 3.40387 18.6787 3.78328V19.9962Z" fill="#EDF5FC"/>
</g>
<defs>
<clipPath id="clip0_4886_435458">
<rect width="22.8889" height="22.8889" fill="white" transform="translate(0.558594 0.445312)"/>
</clipPath>
</defs>
</svg>
