<svg width="24" height="24" viewBox="0 0 24 24" fill="none" xmlns="http://www.w3.org/2000/svg">
<g id="fi-rr-time-past" clip-path="url(#clip0_4886_435459)">
<path id="Vector" d="M23.4051 10.1082C23.0777 8.03473 22.1864 6.09121 20.8285 4.49032C19.4707 2.88942 17.6987 1.69283 15.7064 1.03146C13.7141 0.370088 11.5783 0.269419 9.53262 0.740467C7.48696 1.21151 5.61027 2.23613 4.10786 3.70221V1.39902C4.10786 1.14608 4.00738 0.9035 3.82853 0.724646C3.64968 0.545792 3.4071 0.445313 3.15416 0.445312C2.90122 0.445313 2.65864 0.545792 2.47979 0.724646C2.30093 0.9035 2.20046 1.14608 2.20046 1.39902V5.21383C2.20046 5.71971 2.40141 6.20486 2.75912 6.56257C3.11683 6.92028 3.60199 7.12124 4.10786 7.12124H7.92268C8.17562 7.12124 8.41819 7.02076 8.59705 6.84191C8.7759 6.66305 8.87638 6.42047 8.87638 6.16753C8.87638 5.9146 8.7759 5.67202 8.59705 5.49316C8.41819 5.31431 8.17562 5.21383 7.92268 5.21383H5.29904C6.82306 3.66657 8.82996 2.68642 10.9872 2.43578C13.1445 2.18514 15.3227 2.67904 17.1608 3.83567C18.999 4.99229 20.3869 6.74221 21.0944 8.7955C21.802 10.8488 21.7869 13.0822 21.0515 15.1257C20.3161 17.1692 18.9046 18.9001 17.0509 20.0317C15.1973 21.1632 13.0126 21.6276 10.8589 21.3477C8.70524 21.0678 6.71183 20.0605 5.20894 18.4927C3.70606 16.9249 2.78391 14.8907 2.59529 12.7271C2.57056 12.4946 2.45978 12.2798 2.28471 12.1249C2.10965 11.9699 1.88297 11.8861 1.64921 11.8898C1.51583 11.8901 1.38399 11.9183 1.26209 11.9724C1.14018 12.0265 1.03088 12.1054 0.941163 12.2041C0.851441 12.3028 0.783261 12.4191 0.740967 12.5456C0.698673 12.6721 0.683192 12.806 0.695511 12.9388C0.846325 14.4585 1.29976 15.9326 2.02909 17.2743C2.75842 18.616 3.7489 19.7982 4.94218 20.7512C6.13546 21.7042 7.50741 22.4087 8.97718 22.8233C10.447 23.2379 11.9848 23.3541 13.5002 23.1651C15.0156 22.9761 16.4779 22.4858 17.8008 21.7229C19.1238 20.9601 20.2807 19.9402 21.2033 18.7233C22.126 17.5065 22.7958 16.1172 23.1733 14.6375C23.5508 13.1578 23.6283 11.6174 23.4013 10.1073L23.4051 10.1082Z" fill="#EDF5FC"/>
</g>
<defs>
<clipPath id="clip0_4886_435459">
<rect width="22.8889" height="22.8889" fill="white" transform="translate(0.695312 0.445312)"/>
</clipPath>
</defs>
</svg>
