<svg width="24" height="24" viewBox="0 0 24 24" fill="none" xmlns="http://www.w3.org/2000/svg">
<path d="M14.1116 6.72217H20.1409C20.5882 6.72217 20.8118 6.72217 20.9426 6.81621C21.0567 6.89826 21.131 7.02456 21.1473 7.16416C21.166 7.32417 21.0574 7.51967 20.8402 7.91068L19.3706 10.5559C19.2919 10.6977 19.2525 10.7686 19.237 10.8437C19.2234 10.9101 19.2234 10.9787 19.237 11.0451C19.2525 11.1202 19.2919 11.1911 19.3706 11.3329L20.8402 13.9781C21.0574 14.3691 21.166 14.5646 21.1473 14.7246C21.131 14.8642 21.0567 14.9905 20.9426 15.0726C20.8118 15.1666 20.5882 15.1666 20.1409 15.1666H12.5449C11.9849 15.1666 11.7048 15.1666 11.4909 15.0576C11.3028 14.9617 11.1498 14.8088 11.0539 14.6206C10.9449 14.4067 10.9449 14.1267 10.9449 13.5666V10.9444M7.25049 21.5002L3.02827 4.61133M4.61164 10.9444H12.5116C13.0716 10.9444 13.3517 10.9444 13.5656 10.8355C13.7537 10.7396 13.9067 10.5866 14.0026 10.3984C14.1116 10.1845 14.1116 9.9045 14.1116 9.34445V4.1C14.1116 3.53995 14.1116 3.25992 14.0026 3.04601C13.9067 2.85785 13.7537 2.70487 13.5656 2.60899C13.3517 2.5 13.0716 2.5 12.5116 2.5H4.54971C3.85119 2.5 3.50193 2.5 3.26305 2.64474C3.05368 2.77159 2.89811 2.97084 2.82583 3.20472C2.74335 3.47158 2.82806 3.81041 2.99749 4.48807L4.61164 10.9444Z" stroke="black" stroke-width="2" stroke-linecap="round" stroke-linejoin="round"/>
</svg>
