<svg width="24" height="24" viewBox="0 0 24 24" fill="none" xmlns="http://www.w3.org/2000/svg">
<path d="M18.6317 2.36829C23.1227 6.85931 23.1227 14.1407 18.6317 18.6317C14.3308 22.9326 7.47094 23.1147 2.95335 19.1782C2.75634 19.0065 2.65783 18.9206 2.61336 18.8033C2.57595 18.7045 2.57176 18.5825 2.60232 18.4814C2.63863 18.3613 2.73705 18.2629 2.93388 18.0661L5.14913 15.8508M17.9999 10.5C17.9999 14.6421 14.6421 18 10.4999 18C6.35779 18 2.99992 14.6421 2.99992 10.5C2.99992 6.35788 6.35779 3.00001 10.4999 3.00001C14.6421 3.00001 17.9999 6.35788 17.9999 10.5Z" stroke="black" stroke-width="2" stroke-linecap="round" stroke-linejoin="round"/>
</svg>
