<svg width="20" height="21" viewBox="0 0 20 21" fill="none" xmlns="http://www.w3.org/2000/svg">
    <path d="M7.5763 7.99984C7.77222 7.44289 8.15893 6.97326 8.66793 6.67411C9.17693 6.37497 9.77538 6.26562 10.3573 6.36543C10.9392 6.46524 11.467 6.76777 11.8472 7.21944C12.2274 7.67111 12.4355 8.24277 12.4346 8.83317C12.4346 10.4998 9.93464 11.3332 9.93464 11.3332M10.0013 14.6665H10.0096M18.3346 10.4998C18.3346 15.1022 14.6037 18.8332 10.0013 18.8332C5.39893 18.8332 1.66797 15.1022 1.66797 10.4998C1.66797 5.89746 5.39893 2.1665 10.0013 2.1665C14.6037 2.1665 18.3346 5.89746 18.3346 10.4998Z" stroke="#A6B1BB" stroke-width="2" stroke-linecap="round" stroke-linejoin="round"/>
</svg>
