<svg width="24" height="24" viewBox="0 0 24 24" fill="none" xmlns="http://www.w3.org/2000/svg">
<path d="M17.7447 2.81281C18.7095 1.81633 20.3035 1.80344 21.2843 2.78419C22.2381 3.73807 22.2559 5.27904 21.3242 6.25464L18.5456 9.16441C18.3278 9.39248 18.2189 9.50651 18.1518 9.64007C18.0924 9.75831 18.057 9.88715 18.0478 10.0192C18.0373 10.1683 18.0728 10.3219 18.1437 10.6292L19.8716 18.1167C19.9444 18.4321 19.9808 18.5899 19.969 18.7424C19.9586 18.8774 19.9209 19.0089 19.8582 19.1289C19.7873 19.2645 19.6728 19.379 19.4439 19.6079L19.0732 19.9786C18.467 20.5848 18.164 20.8879 17.8538 20.9427C17.5829 20.9906 17.3043 20.9249 17.0834 20.7609C16.8305 20.5731 16.695 20.1665 16.4239 19.3532L14.4141 13.324L11.0688 16.6693C10.8691 16.869 10.7693 16.9688 10.7025 17.0864C10.6433 17.1906 10.6034 17.3045 10.5845 17.4228C10.5632 17.5563 10.5788 17.6967 10.61 17.9773L10.7937 19.6307C10.8249 19.9114 10.8405 20.0517 10.8192 20.1853C10.8003 20.3036 10.7603 20.4175 10.7012 20.5217C10.6344 20.6393 10.5345 20.7391 10.3348 20.9388L10.1373 21.1363C9.66428 21.6094 9.42775 21.8459 9.1649 21.9144C8.93436 21.9745 8.68993 21.9503 8.47565 21.8461C8.23134 21.7274 8.04579 21.4491 7.67469 20.8924L6.10637 18.54C6.04007 18.4405 6.00692 18.3908 5.96843 18.3457C5.93424 18.3056 5.89694 18.2683 5.85688 18.2341C5.81178 18.1957 5.76206 18.1625 5.66261 18.0962L3.31012 16.5279C2.75348 16.1568 2.47515 15.9712 2.35643 15.7269C2.2523 15.5126 2.2281 15.2682 2.28818 15.0377C2.35668 14.7748 2.59321 14.5383 3.06627 14.0652L3.26378 13.8677C3.46346 13.668 3.56331 13.5682 3.68089 13.5014C3.78505 13.4422 3.899 13.4023 4.0173 13.3834C4.15083 13.3621 4.29117 13.3777 4.57184 13.4089L6.22523 13.5926C6.5059 13.6238 6.64623 13.6394 6.77977 13.6181C6.89807 13.5992 7.01202 13.5592 7.11618 13.5001C7.23376 13.4333 7.3336 13.3334 7.53329 13.1338L10.8786 9.78843L4.84933 7.77867C4.0361 7.50759 3.62949 7.37206 3.44169 7.11915C3.27771 6.89831 3.21193 6.61967 3.25984 6.34881C3.31471 6.03862 3.61778 5.73555 4.22393 5.12941L4.5947 4.75863C4.82359 4.52974 4.93804 4.4153 5.07363 4.3444C5.19364 4.28166 5.32514 4.24394 5.46017 4.23355C5.61272 4.2218 5.77043 4.25819 6.08584 4.33098L13.545 6.05232C13.8549 6.12385 14.0099 6.15961 14.1595 6.14897C14.304 6.1387 14.4445 6.09717 14.5713 6.02725C14.7027 5.95484 14.8133 5.84057 15.0346 5.61203L17.7447 2.81281Z" stroke="black" stroke-width="2" stroke-linecap="round" stroke-linejoin="round"/>
</svg>
